Coordinates
version=1
nRows=41
nColumns=38
inDegrees=no

Units are S.I. units (second, meters, Newtons, ...)
If the header above contains a line with 'inDegrees', this indicates whether rotational values are in degrees (yes) or radians (no).

endheader
time	pelvis_tilt	pelvis_list	pelvis_rotation	pelvis_tx	pelvis_ty	pelvis_tz	hip_flexion_r	hip_adduction_r	hip_rotation_r	knee_angle_r	ankle_angle_r	subtalar_angle_r	mtp_angle_r	hip_flexion_l	hip_adduction_l	hip_rotation_l	knee_angle_l	ankle_angle_l	subtalar_angle_l	mtp_angle_l	lumbar_extension	lumbar_bending	lumbar_rotation	arm_flex_r	arm_add_r	arm_rot_r	elbow_flex_r	pro_sup_r	wrist_flex_r	wrist_dev_r	arm_flex_l	arm_add_l	arm_rot_l	elbow_flex_l	pro_sup_l	wrist_flex_l	wrist_dev_l
0	-1.20648	1.20091	2.62753	0.873695	-1.06588	0.966361	0.481516	-0.497434	0.147932	1.26081	0.0643619	0	0	0.539362	0.198508	-0.285587	0.11338	-0.15904	0	0	-0.099375	-0.413114	0.556249	-0.337694	-0.623514	0.27993	1.2681	0.706021	0	0	0.411662	-0.507774	1.04819	0.902308	0.764758	0	0
0.01	-1.21205	1.19706	2.62959	0.872429	-1.05556	0.963291	0.424287	-0.540694	0.230527	1.03028	0.0717501	0	0	0.540304	0.200643	-0.283424	0.124569	-0.154419	0	0	-0.0988823	-0.42023	0.56131	-0.351854	-0.616735	0.259814	1.27993	0.711786	0	0	0.410286	-0.515457	1.0421	0.917426	0.77078	0	0
0.02	-1.22407	1.20378	2.63844	0.869107	-1.04365	0.96451	0.450516	-0.510726	0.141055	1.25656	0.0623665	0	0	0.523677	0.203572	-0.274115	0.122493	-0.166272	0	0	-0.108329	-0.415608	0.539133	-0.326717	-0.622537	0.286509	1.26979	0.720701	0	0	0.364677	-0.519888	0.96609	0.929594	0.8126	0	0
0.03	-1.24304	1.20566	2.65448	0.86655	-1.03173	0.964137	0.42904	-0.520417	0.134259	1.25062	0.0592913	0	0	0.510273	0.209766	-0.269556	0.130884	-0.169441	0	0	-0.116193	-0.418015	0.534561	-0.327524	-0.620272	0.2836	1.27117	0.731557	0	0	0.34869	-0.523147	0.940552	0.939334	0.827234	0	0
0.04	-1.26265	1.2074	2.67052	0.863938	-1.01962	0.963786	0.40835	-0.529646	0.129205	1.24502	0.0555225	0	0	0.4964	0.216258	-0.266357	0.139404	-0.168952	0	0	-0.12107	-0.419727	0.533681	-0.329166	-0.618743	0.283041	1.27041	0.73473	0	0	0.337816	-0.525251	0.927963	0.9447	0.833063	0	0
0.05	-1.28776	1.20988	2.69145	0.861269	-1.00733	0.963785	0.385575	-0.538907	0.124882	1.23873	0.0483435	0	0	0.480736	0.222845	-0.268564	0.145497	-0.172361	0	0	-0.130525	-0.422319	0.526768	-0.324803	-0.619424	0.288331	1.26982	0.740753	0	0	0.31641	-0.528357	0.894631	0.955658	0.85243	0	0
0.06	-1.30659	1.21119	2.70718	0.858403	-0.994987	0.9636	0.367058	-0.547611	0.122181	1.23456	0.0414933	0	0	0.470166	0.229092	-0.271387	0.152137	-0.179771	0	0	-0.134752	-0.424348	0.524776	-0.324848	-0.618	0.290484	1.26735	0.742348	0	0	0.304389	-0.530639	0.881302	0.961308	0.858887	0	0
0.07	-1.32486	1.21226	2.72217	0.855506	-0.982756	0.963703	0.350864	-0.555254	0.122176	1.23079	0.0273357	0	0	0.460392	0.234388	-0.276767	0.157627	-0.2035	0	0	-0.140586	-0.427213	0.515146	-0.314893	-0.619034	0.303237	1.26289	0.746472	0	0	0.280246	-0.534682	0.845844	0.973014	0.875513	0	0
0.08	-1.3359	1.2124	2.73188	0.852327	-0.97063	0.963788	0.340194	-0.561819	0.122293	1.23352	0.0160255	0	0	0.453415	0.239679	-0.277812	0.164596	-0.217478	0	0	-0.142198	-0.429083	0.511941	-0.312894	-0.617079	0.30732	1.2584	0.747934	0	0	0.268947	-0.536058	0.833844	0.977046	0.880396	0	0
0.09	-1.34258	1.21292	2.7385	0.848933	-0.958384	0.964167	0.327239	-0.566436	0.121483	1.22501	-0.00484115	0	0	0.446732	0.243982	-0.279572	0.171734	-0.238464	0	0	-0.14398	-0.431109	0.489735	-0.286269	-0.621206	0.341624	1.24732	0.746209	0	0	0.22818	-0.541622	0.773608	0.993966	0.909518	0	0
0.1	-1.34143	1.21255	2.73572	0.845483	-0.946626	0.964565	0.324201	-0.571054	0.125972	1.22458	-0.0202917	0	0	0.443672	0.247331	-0.279757	0.180777	-0.248927	0	0	-0.146233	-0.433394	0.484199	-0.282298	-0.619961	0.347209	1.24279	0.746113	0	0	0.217247	-0.542442	0.761527	0.997609	0.915481	0	0
0.11	-1.34698	1.21144	2.74442	0.841557	-0.934474	0.96466	0.320501	-0.578754	0.132761	1.22979	-0.042994	0	0	0.439958	0.252466	-0.282694	0.193355	-0.259772	0	0	-0.141926	-0.433582	0.48782	-0.293672	-0.613389	0.335209	1.24021	0.75387	0	0	0.218511	-0.540391	0.769961	0.994402	0.912001	0	0
0.12	-1.34558	1.21049	2.74556	0.837755	-0.922693	0.965156	0.322281	-0.584496	0.140579	1.23714	-0.0721703	0	0	0.439653	0.254632	-0.288236	0.211221	-0.268364	0	0	-0.140526	-0.434361	0.488314	-0.301108	-0.607283	0.326103	1.23689	0.764004	0	0	0.219445	-0.538786	0.776436	0.991234	0.909821	0	0
0.13	-0.816174	1.28866	2.36728	0.818525	-0.896406	0.972746	0.235604	-0.419197	-0.0523806	1.08596	-0.143248	0	0	0.538527	0.159095	-0.0888731	0.293127	-0.252166	0	0	-0.0130773	-0.259728	0.193512	-0.0145105	-0.581417	0.764125	1.0029	0.699493	0	0	-0.0882756	-0.49118	0.377512	0.966665	1.07313	0	0
0.14	-0.820774	1.28875	2.37314	0.815141	-0.885023	0.974133	0.242129	-0.424262	-0.0407396	1.10227	-0.182902	0	0	0.538016	0.159096	-0.0989946	0.317975	-0.251168	0	0	-0.0127311	-0.261179	0.194969	-0.019986	-0.577593	0.757087	0.997068	0.703469	0	0	-0.0842774	-0.490599	0.387101	0.960967	1.06815	0	0
0.15	-0.826181	1.28944	2.38034	0.811764	-0.873803	0.975949	0.251116	-0.429504	-0.0297362	1.12078	-0.228799	0	0	0.535649	0.159131	-0.108262	0.341651	-0.247866	0	0	-0.0131556	-0.262237	0.195077	-0.0224706	-0.574201	0.754242	0.990468	0.705117	0	0	-0.079877	-0.490727	0.398063	0.955641	1.06065	0	0
0.16	-0.832188	1.29061	2.38825	0.808418	-0.862637	0.978046	0.262494	-0.434415	-0.0183126	1.14133	-0.272342	0	0	0.529898	0.159853	-0.117069	0.358938	-0.245655	0	0	-0.0132398	-0.262837	0.19471	-0.0221221	-0.571535	0.756747	0.98299	0.70359	0	0	-0.0750614	-0.491499	0.411078	0.950342	1.05174	0	0
0.17	-0.839092	1.29327	2.39692	0.805173	-0.851712	0.980535	0.269694	-0.43554	0.00151875	1.14869	-0.298123	0	0	0.520434	0.160538	-0.12626	0.371377	-0.2439	0	0	-0.00314269	-0.259989	0.192993	-0.0119093	-0.568068	0.781177	0.965466	0.696659	0	0	-0.072481	-0.488906	0.422846	0.935285	1.04923	0	0
0.18	-0.848446	1.29651	2.4076	0.801924	-0.840811	0.982925	0.284304	-0.438287	0.0142814	1.17638	-0.341331	0	0	0.508648	0.161124	-0.141274	0.38237	-0.240136	0	0	-0.0219376	-0.262269	0.188812	-0.0177559	-0.56849	0.759167	0.973039	0.704039	0	0	-0.0729037	-0.487987	0.4136	0.946931	1.05518	0	0
0.19	-0.858138	1.30099	2.41871	0.798655	-0.829983	0.98541	0.299037	-0.439586	0.0263978	1.20449	-0.387825	0	0	0.494429	0.161103	-0.159961	0.390974	-0.235383	0	0	-0.029133	-0.26056	0.189883	-0.0233069	-0.568612	0.747019	0.973248	0.712665	0	0	-0.066571	-0.485984	0.420811	0.944533	1.05713	0	0
0.2	-0.869435	1.3063	2.43049	0.795446	-0.819448	0.987826	0.31505	-0.439286	0.0400742	1.23366	-0.437571	0	0	0.478262	0.161044	-0.178748	0.397357	-0.228294	0	0	-0.0406311	-0.257322	0.214452	-0.0671951	-0.56748	0.6727	0.988032	0.755651	0	0	-0.0283191	-0.486837	0.477197	0.931536	1.03775	0	0
0.21	-0.879168	1.31165	2.44031	0.792304	-0.809086	0.990082	0.332552	-0.437664	0.0540848	1.26324	-0.484901	0	0	0.459625	0.161804	-0.192177	0.397639	-0.2205	0	0	-0.0448376	-0.253036	0.223884	-0.0778761	-0.571133	0.65868	0.990921	0.751548	0	0	-0.00921282	-0.488032	0.513792	0.922965	1.01279	0	0
0.22	-0.88773	1.31708	2.4484	0.789347	-0.798857	0.992193	0.350703	-0.433562	0.0701047	1.29331	-0.515817	0	0	0.439884	0.162321	-0.201921	0.395264	-0.214272	0	0	-0.0478525	-0.24883	0.226536	-0.0773288	-0.575469	0.661594	0.990142	0.747794	0	0	-0.00100484	-0.487778	0.531521	0.91822	1.00072	0	0
0.23	-0.892558	1.32225	2.45198	0.786616	-0.788899	0.994095	0.370504	-0.426242	0.0884654	1.32242	-0.535913	0	0	0.420654	0.16227	-0.208897	0.390551	-0.209196	0	0	-0.0361076	-0.24262	0.223921	-0.0584483	-0.579234	0.701036	0.974862	0.733191	0	0	-0.00372717	-0.484642	0.536206	0.906693	1.00009	0	0
0.24	-0.888512	1.32429	2.44642	0.783913	-0.77927	0.995484	0.398184	-0.419548	0.107218	1.35414	-0.545264	0	0	0.406771	0.163146	-0.213591	0.386224	-0.205266	0	0	-0.0519074	-0.242308	0.220067	-0.061423	-0.58414	0.682305	0.988133	0.739789	0	0	-0.00669142	-0.484469	0.523132	0.921393	1.00371	0	0
0.25	-0.889529	1.32857	2.44758	0.781478	-0.769628	0.9973	0.417625	-0.409186	0.123725	1.37953	-0.539668	0	0	0.390058	0.162325	-0.21789	0.381572	-0.202606	0	0	-0.0569855	-0.239356	0.21922	-0.0617318	-0.586287	0.676259	0.990621	0.745172	0	0	-0.00391439	-0.48318	0.524462	0.922344	1.0048	0	0
0.26	-0.890368	1.33212	2.44864	0.779244	-0.76011	0.999075	0.436962	-0.39754	0.141155	1.40333	-0.520172	0	0	0.374137	0.161059	-0.224042	0.37721	-0.200203	0	0	-0.0607142	-0.237076	0.219629	-0.062732	-0.587876	0.670085	0.992583	0.751026	0	0	0.00102285	-0.48279	0.530389	0.922157	1.00223	0	0
0.27	-0.888232	1.33499	2.4471	0.77711	-0.750585	1.00071	0.457013	-0.385509	0.157328	1.42515	-0.495385	0	0	0.360151	0.159003	-0.232744	0.37574	-0.197248	0	0	-0.0627553	-0.234842	0.220037	-0.063929	-0.588699	0.663926	0.993729	0.755993	0	0	0.00610312	-0.483175	0.538561	0.921687	0.996636	0	0
0.28	-0.88358	1.3373	2.44336	0.774996	-0.740948	1.00222	0.477764	-0.372981	0.173104	1.44398	-0.472945	0	0	0.346866	0.157412	-0.241068	0.374934	-0.193697	0	0	-0.0630881	-0.232693	0.220252	-0.0648304	-0.588892	0.659162	0.993541	0.759603	0	0	0.0106041	-0.483604	0.547118	0.920685	0.990258	0	0
0.29	-0.878445	1.33969	2.4397	0.772829	-0.731374	1.00373	0.498025	-0.359664	0.189081	1.45899	-0.452622	0	0	0.333046	0.1567	-0.247095	0.373036	-0.189754	0	0	-0.0632674	-0.230282	0.220088	-0.065163	-0.58912	0.655598	0.992554	0.762485	0	0	0.0158589	-0.483693	0.557071	0.919013	0.982832	0	0
0.3	-0.874118	1.34243	2.43665	0.770764	-0.721873	1.00522	0.517416	-0.346115	0.204408	1.47064	-0.429661	0	0	0.317868	0.156201	-0.252732	0.369066	-0.185517	0	0	-0.0655707	-0.22735	0.23292	-0.0869903	-0.586897	0.617755	0.99836	0.784577	0	0	0.0394757	-0.483401	0.595055	0.910562	0.962585	0	0
0.31	-0.859903	1.34513	2.42474	0.768668	-0.71238	1.00641	0.537144	-0.331462	0.217275	1.47901	-0.40341	0	0	0.301863	0.155764	-0.251189	0.358512	-0.183485	0	0	-0.0592484	-0.223259	0.217873	-0.0583805	-0.590221	0.663699	0.984898	0.759545	0	0	0.024033	-0.482867	0.575702	0.913645	0.964602	0	0
0.32	-0.863222	1.34766	2.42928	0.766615	-0.702716	1.00825	0.552968	-0.320455	0.229437	1.48238	-0.382267	0	0	0.283685	0.157507	-0.256063	0.349989	-0.183876	0	0	-0.0606306	-0.222235	0.213055	-0.0492307	-0.589797	0.673919	0.978254	0.758999	0	0	0.0225601	-0.48106	0.572986	0.912211	0.963974	0	0
0.33	-0.859612	1.35019	2.42706	0.76461	-0.693113	1.00972	0.569516	-0.307978	0.239989	1.48217	-0.362266	0	0	0.265195	0.158701	-0.256954	0.337282	-0.184455	0	0	-0.0613671	-0.220067	0.207914	-0.0404359	-0.589767	0.683267	0.972445	0.757798	0	0	0.0202683	-0.47924	0.569077	0.911823	0.963481	0	0
0.34	-0.853644	1.3527	2.42257	0.762627	-0.68352	1.01101	0.585954	-0.295594	0.248439	1.47818	-0.343518	0	0	0.247618	0.159249	-0.257968	0.325448	-0.184623	0	0	-0.0613199	-0.217356	0.203622	-0.0324005	-0.589671	0.69218	0.966283	0.756146	0	0	0.0190472	-0.477089	0.567133	0.910172	0.963062	0	0
0.35	-0.848636	1.35532	2.41966	0.760569	-0.674022	1.01222	0.60162	-0.283803	0.255397	1.47091	-0.326409	0	0	0.230638	0.1596	-0.259828	0.315373	-0.184301	0	0	-0.0619964	-0.214657	0.198876	-0.0246068	-0.5897	0.700855	0.96028	0.754648	0	0	0.0180815	-0.474518	0.564976	0.908134	0.962916	0	0
0.36	-0.843128	1.35779	2.4171	0.758389	-0.66468	1.01325	0.616094	-0.273264	0.260254	1.46052	-0.309652	0	0	0.214977	0.159754	-0.262618	0.307495	-0.183853	0	0	-0.0638817	-0.21204	0.192997	-0.0169725	-0.589952	0.708653	0.954996	0.754196	0	0	0.0169201	-0.471785	0.561478	0.906791	0.963254	0	0
0.37	-0.83795	1.35998	2.41459	0.756273	-0.655398	1.01406	0.630261	-0.263406	0.26411	1.44645	-0.295781	0	0	0.199871	0.159891	-0.265647	0.300533	-0.183328	0	0	-0.0655421	-0.209748	0.188193	-0.0102817	-0.590105	0.715401	0.949767	0.754491	0	0	0.0164707	-0.468946	0.558585	0.905064	0.964223	0	0
0.38	-0.835226	1.36202	2.41382	0.754323	-0.646051	1.01473	0.643696	-0.253695	0.268008	1.42868	-0.283674	0	0	0.183706	0.160967	-0.265097	0.29179	-0.182248	0	0	-0.068886	-0.208259	0.182652	-0.00301784	-0.590278	0.721701	0.94576	0.756458	0	0	0.01399	-0.466738	0.552188	0.90616	0.965758	0	0
0.39	-0.834654	1.36427	2.41474	0.75246	-0.636705	1.0153	0.656455	-0.24336	0.273928	1.40908	-0.273745	0	0	0.1676	0.162141	-0.263493	0.284193	-0.179923	0	0	-0.0732842	-0.206917	0.178465	0.00213738	-0.590766	0.723941	0.94333	0.758692	0	0	0.012563	-0.464964	0.547735	0.908025	0.966003	0	0
0.4	-0.834738	1.36638	2.41642	0.750647	-0.627449	1.01567	0.668683	-0.233838	0.279907	1.38797	-0.263788	0	0	0.153106	0.162982	-0.26262	0.279997	-0.176523	0	0	-0.0781016	-0.205599	0.175795	0.00455538	-0.591914	0.722051	0.943106	0.762237	0	0	0.0128815	-0.463531	0.545914	0.910044	0.96525	0	0
